<?xml version="1.0" encoding="UTF-8" standalone="no"?>
<!DOCTYPE svg PUBLIC "-//W3C//DTD SVG 1.1//EN"
 "http://www.w3.org/Graphics/SVG/1.1/DTD/svg11.dtd">
<!-- Generated by graphviz version 2.40.1 (20161225.0304)
 -->
<!-- Title: %3 Pages: 1 -->
<svg width="266pt" height="309pt"
 viewBox="0.00 0.00 265.50 309.00" xmlns="http://www.w3.org/2000/svg" xmlns:xlink="http://www.w3.org/1999/xlink">
<g id="graph0" class="graph" transform="scale(1 1) rotate(0) translate(4 305)">
<title>%3</title>
<polygon fill="#ffffff" stroke="transparent" points="-4,4 -4,-305 261.5,-305 261.5,4 -4,4"/>
<!-- 140566083846328 -->
<g id="node1" class="node">
<title>140566083846328</title>
<polygon fill="#caff70" stroke="#000000" points="171,-21 67,-21 67,0 171,0 171,-21"/>
<text text-anchor="middle" x="119" y="-7.4" font-family="Times,serif" font-size="12.00" fill="#000000">AddmmBackward</text>
</g>
<!-- 140566083846384 -->
<g id="node2" class="node">
<title>140566083846384</title>
<polygon fill="#add8e6" stroke="#000000" points="56,-91 0,-91 0,-57 56,-57 56,-91"/>
<text text-anchor="middle" x="28" y="-77.4" font-family="Times,serif" font-size="12.00" fill="#000000">W1.bias</text>
<text text-anchor="middle" x="28" y="-64.4" font-family="Times,serif" font-size="12.00" fill="#000000"> (1)</text>
</g>
<!-- 140566083846384&#45;&gt;140566083846328 -->
<g id="edge1" class="edge">
<title>140566083846384&#45;&gt;140566083846328</title>
<path fill="none" stroke="#000000" d="M52.3863,-56.9832C65.6468,-47.73 81.9815,-36.3316 95.1567,-27.1379"/>
<polygon fill="#000000" stroke="#000000" points="97.4986,-29.7717 103.6965,-21.1788 93.4928,-24.0311 97.4986,-29.7717"/>
</g>
<!-- 140566083846440 -->
<g id="node3" class="node">
<title>140566083846440</title>
<polygon fill="#d3d3d3" stroke="#000000" points="164,-84.5 74,-84.5 74,-63.5 164,-63.5 164,-84.5"/>
<text text-anchor="middle" x="119" y="-70.9" font-family="Times,serif" font-size="12.00" fill="#000000">TanhBackward</text>
</g>
<!-- 140566083846440&#45;&gt;140566083846328 -->
<g id="edge2" class="edge">
<title>140566083846440&#45;&gt;140566083846328</title>
<path fill="none" stroke="#000000" d="M119,-63.2281C119,-54.5091 119,-41.9699 119,-31.3068"/>
<polygon fill="#000000" stroke="#000000" points="122.5001,-31.1128 119,-21.1128 115.5001,-31.1129 122.5001,-31.1128"/>
</g>
<!-- 140566083846608 -->
<g id="node4" class="node">
<title>140566083846608</title>
<polygon fill="#d3d3d3" stroke="#000000" points="169,-154.5 65,-154.5 65,-133.5 169,-133.5 169,-154.5"/>
<text text-anchor="middle" x="117" y="-140.9" font-family="Times,serif" font-size="12.00" fill="#000000">AddmmBackward</text>
</g>
<!-- 140566083846608&#45;&gt;140566083846440 -->
<g id="edge3" class="edge">
<title>140566083846608&#45;&gt;140566083846440</title>
<path fill="none" stroke="#000000" d="M117.3038,-133.3685C117.5945,-123.1925 118.0411,-107.5606 118.4031,-94.8912"/>
<polygon fill="#000000" stroke="#000000" points="121.9063,-94.8275 118.6934,-84.7315 114.9091,-94.6275 121.9063,-94.8275"/>
</g>
<!-- 140566083846720 -->
<g id="node5" class="node">
<title>140566083846720</title>
<polygon fill="#add8e6" stroke="#000000" points="104,-231 48,-231 48,-197 104,-197 104,-231"/>
<text text-anchor="middle" x="76" y="-217.4" font-family="Times,serif" font-size="12.00" fill="#000000">W0.bias</text>
<text text-anchor="middle" x="76" y="-204.4" font-family="Times,serif" font-size="12.00" fill="#000000"> (16)</text>
</g>
<!-- 140566083846720&#45;&gt;140566083846608 -->
<g id="edge4" class="edge">
<title>140566083846720&#45;&gt;140566083846608</title>
<path fill="none" stroke="#000000" d="M86.1348,-196.6966C92.0172,-186.6535 99.4448,-173.9722 105.5395,-163.5667"/>
<polygon fill="#000000" stroke="#000000" points="108.6454,-165.189 110.6794,-154.7913 102.6052,-161.6512 108.6454,-165.189"/>
</g>
<!-- 140566083846776 -->
<g id="node6" class="node">
<title>140566083846776</title>
<polygon fill="#d3d3d3" stroke="#000000" points="195.5,-224.5 122.5,-224.5 122.5,-203.5 195.5,-203.5 195.5,-224.5"/>
<text text-anchor="middle" x="159" y="-210.9" font-family="Times,serif" font-size="12.00" fill="#000000">TBackward</text>
</g>
<!-- 140566083846776&#45;&gt;140566083846608 -->
<g id="edge5" class="edge">
<title>140566083846776&#45;&gt;140566083846608</title>
<path fill="none" stroke="#000000" d="M152.6211,-203.3685C146.2688,-192.7814 136.3731,-176.2886 128.6223,-163.3705"/>
<polygon fill="#000000" stroke="#000000" points="131.5852,-161.5057 123.4389,-154.7315 125.5827,-165.1072 131.5852,-161.5057"/>
</g>
<!-- 140566083846888 -->
<g id="node7" class="node">
<title>140566083846888</title>
<polygon fill="#add8e6" stroke="#000000" points="193.5,-301 124.5,-301 124.5,-267 193.5,-267 193.5,-301"/>
<text text-anchor="middle" x="159" y="-287.4" font-family="Times,serif" font-size="12.00" fill="#000000">W0.weight</text>
<text text-anchor="middle" x="159" y="-274.4" font-family="Times,serif" font-size="12.00" fill="#000000"> (16, 8)</text>
</g>
<!-- 140566083846888&#45;&gt;140566083846776 -->
<g id="edge6" class="edge">
<title>140566083846888&#45;&gt;140566083846776</title>
<path fill="none" stroke="#000000" d="M159,-266.6966C159,-257.0634 159,-245.003 159,-234.8518"/>
<polygon fill="#000000" stroke="#000000" points="162.5001,-234.7912 159,-224.7913 155.5001,-234.7913 162.5001,-234.7912"/>
</g>
<!-- 140566083846496 -->
<g id="node8" class="node">
<title>140566083846496</title>
<polygon fill="#d3d3d3" stroke="#000000" points="257.5,-84.5 184.5,-84.5 184.5,-63.5 257.5,-63.5 257.5,-84.5"/>
<text text-anchor="middle" x="221" y="-70.9" font-family="Times,serif" font-size="12.00" fill="#000000">TBackward</text>
</g>
<!-- 140566083846496&#45;&gt;140566083846328 -->
<g id="edge7" class="edge">
<title>140566083846496&#45;&gt;140566083846328</title>
<path fill="none" stroke="#000000" d="M203.6971,-63.2281C187.4805,-53.1325 163.0365,-37.9149 144.5702,-26.4187"/>
<polygon fill="#000000" stroke="#000000" points="146.3865,-23.4266 136.0474,-21.1128 142.6869,-29.3692 146.3865,-23.4266"/>
</g>
<!-- 140566083846664 -->
<g id="node9" class="node">
<title>140566083846664</title>
<polygon fill="#add8e6" stroke="#000000" points="256.5,-161 187.5,-161 187.5,-127 256.5,-127 256.5,-161"/>
<text text-anchor="middle" x="222" y="-147.4" font-family="Times,serif" font-size="12.00" fill="#000000">W1.weight</text>
<text text-anchor="middle" x="222" y="-134.4" font-family="Times,serif" font-size="12.00" fill="#000000"> (1, 16)</text>
</g>
<!-- 140566083846664&#45;&gt;140566083846496 -->
<g id="edge8" class="edge">
<title>140566083846664&#45;&gt;140566083846496</title>
<path fill="none" stroke="#000000" d="M221.7528,-126.6966C221.6152,-117.0634 221.4429,-105.003 221.2979,-94.8518"/>
<polygon fill="#000000" stroke="#000000" points="224.7967,-94.7402 221.1542,-84.7913 217.7975,-94.8403 224.7967,-94.7402"/>
</g>
</g>
</svg>
